<svg width="150" height="96" fill="none" xmlns="http://www.w3.org/2000/svg"><path d="M9.259 93.848c4.146 0 6.486-3.837 6.486-8.47 0-4.053-2.101-8.289-6.464-8.289-4.362 0-6.52 4.076-6.52 8.493 0 4.418 2.34 8.255 6.463 8.255h.035v.011Zm-.148 2.14C3.726 95.989 0 91.81 0 85.64c0-6.17 3.965-10.702 9.384-10.702 5.418 0 9.145 4.258 9.145 10.315 0 6.99-4.238 10.737-9.384 10.737h-.034ZM23.79 75.279h2.647v13.64c0 5.407-2.647 7.08-6.135 7.08-.988 0-2.17-.215-2.794-.477l.363-2.14a6.371 6.371 0 0 0 2.227.386c2.352 0 3.703-1.058 3.703-5.043V75.302l-.011-.023Zm17.473 10.827h-7.85v7.344h8.781v2.208H30.766v-20.38H41.74v2.21h-8.327v6.444h7.85v2.174Zm4.323 9.552v-20.38h2.885l6.464 10.304c1.466 2.391 2.67 4.543 3.602 6.627l.09-.035c-.238-2.72-.295-5.203-.295-8.345v-8.55h2.465v20.38H58.15L51.72 85.32c-1.408-2.266-2.771-4.6-3.76-6.809l-.09.034c.147 2.562.181 5.021.181 8.403v8.71h-2.465Zm31.198-5.931c-2.26 0-3.862-1.81-3.862-4.213 0-2.402 1.67-4.212 3.999-4.212 2.328 0 3.93 1.742 3.93 4.212 0 2.47-1.59 4.213-3.998 4.213h-.069Zm17.736-4.896h2.68c2.795 0 4.567-1.548 4.567-3.87 0-2.63-1.897-3.78-4.658-3.78-1.26 0-2.135.124-2.59.238v7.412Zm-2.614-9.245c1.33-.273 3.25-.455 5.021-.455 2.795 0 4.635.546 5.896 1.696 1 .877 1.591 2.266 1.591 3.871 0 2.653-1.716 4.44-3.817 5.17v.09c1.533.547 2.465 1.993 2.976 4.11.659 2.847 1.136 4.805 1.534 5.59h-2.704c-.329-.603-.784-2.322-1.318-4.873-.602-2.812-1.715-3.87-4.09-3.962H94.53v8.835h-2.612V75.575l-.012.011Zm23.481 18.262c4.147 0 6.499-3.837 6.499-8.47 0-4.053-2.102-8.289-6.464-8.289-4.363 0-6.521 4.076-6.521 8.494 0 4.417 2.34 8.254 6.464 8.254h.034l-.012.011Zm-.147 2.14c-5.385 0-9.111-4.178-9.111-10.348 0-6.171 3.965-10.703 9.383-10.703 5.419 0 9.145 4.259 9.145 10.316 0 6.99-4.237 10.736-9.383 10.736h-.034Zm23.116-9.882h-7.85v7.344h8.782v2.208h-11.429v-20.38h10.986v2.21h-8.339v6.444h7.85v2.174Zm8.997-10.827h2.646v13.64c0 5.407-2.646 7.08-6.134 7.08-.988 0-2.159-.215-2.795-.477l.364-2.14a6.471 6.471 0 0 0 2.226.386c2.341 0 3.693-1.058 3.693-5.043V75.279Zm-41.578-50.345h12.144l-5.828-8.312-6.316 8.312Zm16.949 2.504h-21.982l11.44-15.04 10.554 15.04h-.012Zm-22.263.922s11.462 11.056 22.493-.113l-22.493.113ZM33.9 24.934h12.154l-6.316-8.312-5.828 8.312h-.01Zm17.187 2.504H29.094L39.647 12.41l11.44 15.028Zm.281.922s-11.45 11.056-22.493-.113l22.493.113Z" fill="#666"/><path d="M41.297 74.675s17.745-53.817 32.15 7.72c0 0-12.395-44.972-32.15-7.72Z" fill="#3573B9"/><path d="M56.63 59.066c5.112 0 9.19 4.691 12.133 9.837-4.283-12.227-8.384-15.188-11.349-15.188-4.362 0-8.622 6.25-11.622 12.32 3.624-4.634 7.26-6.968 10.85-6.968m16.79 24.148a.822.822 0 0 1-.795-.615c-.057-.217-6.146-21.871-16.007-21.871-4.646 0-9.565 4.816-14.61 14.334-.204.375-.658.546-1.056.375a.842.842 0 0 1-.465-1.024c.306-.911 7.475-22.36 16.904-22.36 6.555 0 12.053 9.79 16.79 29.942a.77.77 0 0 1 .102.399c0 .467-.42.82-.84.83h-.023v-.01ZM62.323 43.822c0 2.766-2.227 5.01-4.976 5.01-2.75 0-4.976-2.244-4.976-5.01 0-2.767 2.227-4.998 4.976-4.998s4.976 2.242 4.976 4.998Z" fill="#3573B9"/><path d="M80.406 82.258s13.826-62.994 29.65-6.102c0 0-13.927-37.629-29.65 6.102Z" fill="#E99619"/><path d="M96.22 53.191c-4.612 0-8.86 9.063-11.734 17.602 3.782-6.99 7.781-10.52 11.928-10.52 4.146 0 7.509 3.427 9.997 7.059-4.135-11.442-7.725-14.13-10.179-14.13M80.407 83.09c-.08 0-.159 0-.227-.034a.835.835 0 0 1-.58-.98c.682-3.13 6.987-30.546 16.632-30.546 5.26 0 10.02 7.913 14.575 24.205a.91.91 0 0 1 .114.433.835.835 0 0 1-.83.831h-.034a.804.804 0 0 1-.772-.547c-.057-.147-5.464-14.504-12.871-14.504-5.112 0-10.383 7.127-15.223 20.607a.83.83 0 0 1-.784.546m10.995-39.416c0 2.755 2.227 4.998 4.976 4.998 2.75 0 4.976-2.243 4.976-4.998 0-2.755-2.227-5.01-4.976-5.01-2.75 0-4.976 2.243-4.976 5.01Z" fill="#E99619"/><path d="M96.14 3.006s-19.902 52.53-38.976 0c0 0 16.586 38.356 38.977 0Z" fill="#93A445"/><path d="M62.231 12.82c4.272 8.436 8.804 12.694 13.507 12.694 6.033 0 11.406-7.002 14.996-13.24-4.828 5.715-9.736 8.606-14.655 8.606-5.77 0-10.485-3.927-13.848-8.06Zm13.507 14.368c-7.088 0-13.598-8.038-19.357-23.898a.835.835 0 0 1 .465-1.059.818.818 0 0 1 1.068.445c.068.159 7.293 16.542 18.165 16.542 6.385 0 12.894-5.601 19.347-16.634a.837.837 0 0 1 1.079-.33.845.845 0 0 1 .42 1.048c-.375.979-9.19 23.886-21.175 23.886h-.012Z" fill="#93A445"/><path d="M81.338 12.216c0 2.767-2.226 5.01-4.975 5.01-2.75 0-4.976-2.243-4.976-5.01 0-2.766 2.238-4.998 4.975-4.998 2.738 0 4.976 2.243 4.976 4.998Zm9.24 37.822s-13.973-59.898-27.367 0c0 0 11.644-43.73 27.367 0Z" fill="#93A445"/><path d="M76.502 29.772c3.215 0 6.317 2.528 9.361 7.685-2.579-6.774-6.02-13.207-9.6-13.207-2.203 0-5.293 2.54-8.735 12.923 2.306-4.008 5.34-7.4 8.974-7.4ZM90.578 50.88a.846.846 0 0 1-.784-.546c-5.612-15.61-10.338-18.888-13.303-18.888-6.123 0-11.088 13.582-12.485 18.82a.821.821 0 0 1-1 .592.838.838 0 0 1-.613-.99C66.494 31.513 71.027 22.6 76.253 22.6c8.338 0 14.222 23.43 15.074 27.05a.77.77 0 0 1 .103.4.835.835 0 0 1-.83.83h-.034" fill="#93A445"/><path d="M113.377 14.254h-2.488V2.504H40.933v11.75h-2.488V0h74.932v14.254Z" fill="#666"/><path d="M58.823 50.88c-12.837-.296-18.88-.159-27.264-2.971 0 0 10.814 6.512 24.776 6.114 13.064-.376 19.12 3.518 20.517 4.326 0 0-9.452-7.264-18.029-7.468Z" fill="#3573B9"/><path d="M58.096 53.203c3.715 0 7.134.342 10.224 1.025-2.92-1.344-6.304-2.47-9.52-2.55l-3.396-.08c-6.282-.137-10.883-.228-15.211-.831 4.271 1.4 9.883 2.618 16.108 2.459.614-.023 1.204-.023 1.784-.023m18.767 5.943a.828.828 0 0 1-.398-.102l-.193-.114c-4.657-2.744-10.77-4.133-18.165-4.133-.568 0-1.147 0-1.738.023-14.064.41-24.776-5.966-25.208-6.228a.815.815 0 0 1-.318-1.013.806.806 0 0 1 .977-.421c7.497 2.516 13.223 2.63 23.64 2.857l3.397.08c8.736.205 18.097 7.332 18.494 7.628.33.25.41.729.182 1.082a.78.78 0 0 1-.659.353" fill="#3573B9"/><path d="M94.868 50.88c12.838-.296 18.881-.159 27.265-2.971 0 0-10.804 6.512-24.777 6.114-13.064-.376-19.119 3.518-20.516 4.326 0 0 9.451-7.264 18.028-7.468Z" fill="#E99619"/><path d="M113.501 50.778c-4.328.604-8.929.706-15.223.831l-3.396.08c-3.215.08-6.6 1.207-9.52 2.55 3.578-.785 7.498-1.127 12.008-1.002 6.214.171 11.86-1.059 16.131-2.459Zm-36.67 8.368a.78.78 0 0 1-.66-.353.789.789 0 0 1 .182-1.07c.398-.307 9.759-7.423 18.495-7.628l3.396-.08c10.406-.216 16.143-.341 23.63-2.857a.791.791 0 0 1 .965.42.794.794 0 0 1-.307 1.014c-.443.262-11.155 6.66-25.208 6.228a86.01 86.01 0 0 0-1.738-.023c-7.384 0-13.496 1.389-18.165 4.133l-.204.114a.828.828 0 0 1-.398.102" fill="#E99619"/></svg>